<?xml version="1.0" encoding="utf-8"?>
<!-- Generator: Adobe Illustrator 18.1.1, SVG Export Plug-In . SVG Version: 6.00 Build 0)  -->
<!DOCTYPE svg PUBLIC "-//W3C//DTD SVG 1.1//EN" "http://www.w3.org/Graphics/SVG/1.1/DTD/svg11.dtd">
<svg version="1.1" id="Layer_1" xmlns="http://www.w3.org/2000/svg" xmlns:xlink="http://www.w3.org/1999/xlink" x="0px" y="0px"
	 viewBox="20 216.1 144 143.9" enable-background="new 20 216.1 144 143.9" xml:space="preserve">
<path fill="#EFEEED" d="M91.4,221.9V234c-8.4,0-16.3,1.9-23.4,5.2l-5.2-11C71.5,224.2,81.1,221.9,91.4,221.9z"/>
<path fill="#3DBB9A" d="M68,239.3c-18.5,8.8-31.3,27.6-31.3,49.4H24.6c0-26.6,15.6-49.7,38.2-60.3L68,239.3z"/>
<path fill="#F16067" d="M146.2,328.9c-3,5-9.6,11.6-14.6,14.6c-52.5,31.9-107-5.1-107-54.9h12.1c0,30.1,24.4,54.6,54.6,54.6
	s54.6-24.4,54.6-54.6c0-30.2-24.4-54.6-54.6-54.6v-12.1C141.1,221.9,178.2,276.3,146.2,328.9z"/>
<line fill="none" stroke="#FFFFFF" stroke-miterlimit="10" x1="10.6" y1="180" x2="7.7" y2="180"/>
</svg>
