<?xml version="1.0" encoding="utf-8"?>
<!-- Generator: Adobe Illustrator 19.2.0, SVG Export Plug-In . SVG Version: 6.00 Build 0)  -->
<svg version="1.1" id="logo" xmlns="http://www.w3.org/2000/svg" xmlns:xlink="http://www.w3.org/1999/xlink" x="0px" y="0px"
	 viewBox="0 0 1084.7 395" style="enable-background:new 0 0 1084.7 395;" xml:space="preserve">
<style type="text/css">
	.st0{fill:#EFEEED;}
</style>
<path class="st0" d="M465,72.8C402.6-58,314,66.9,314,66.9C203.3,202.7,80.9,208.1,58.6,207.9c-7.1-2.8-13.4-5.9-18.9-9.1l-2.4-1.2
	c0,0-15,107.2,19.3,145c1.9,2.1,5.4,0.5,5-2.4c-2.3-16.5,5-61.5,48.2-107.8c17.3,6.2,34,10.5,50.1,13.2c0,0,14.6,38.5-30.9,52
	c-1.5,0.5-1.4,2.7,0.2,2.9c2.8,0.3,6.3,0.6,10.3,0.6c20,0,51.8-7.4,63.4-51.8c48.8,0.3,90.9-13.9,126.3-34.2c0,0,44.9,19-9.1,169.7
	c0,0-5.9,19.3,21.2,4.6c21.3-11.5,37.5-30.5,46.1-53c17.7-46.5,41.2-101.8-10.5-155.2c4.2-3.6,8.3-7.3,12.3-11
	c46.6,39.1,42.9,79.6,43.2,93.7c0,1.5,8,5.3,12.6-6.8c24.1-63.4-26.9-117.1-26.9-117.1C449.1,104,465,72.8,465,72.8z M396.7,74.7
	c-9.4,0-17-7.6-17-17s7.6-17,17-17s17,7.6,17,17S406.1,74.7,396.7,74.7z"/>
<g>
	<path class="st0" d="M59.2,152.5c2.2-0.5,4.3-1,6.5-1.4c1.1-0.2,2.2-0.4,3.2-0.7l3.2-0.8l3.2-0.8c1.1-0.3,2.1-0.5,3.2-0.8l6.3-1.8
		c2.1-0.5,4.2-1.3,6.3-1.9c2.1-0.7,4.2-1.3,6.2-2l6.2-2.1l6.1-2.3c1-0.4,2-0.7,3.1-1.1l3-1.2c2-0.8,4-1.6,6-2.5l6-2.6
		c2-0.8,4-1.8,5.9-2.7c4-1.8,7.8-3.7,11.7-5.6c3.9-2,7.7-3.9,11.5-6l2.9-1.5l2.8-1.6c1.9-1.1,3.8-2.1,5.7-3.2l5.6-3.2l5.6-3.3
		c3.7-2.2,7.4-4.5,11-6.9c1.8-1.1,3.7-2.3,5.5-3.5s3.6-2.4,5.4-3.6c3.6-2.4,7.1-4.9,10.7-7.4c3.5-2.5,7-5,10.5-7.6s6.9-5.2,10.3-7.8
		c1.7-1.3,3.4-2.6,5-4l2.5-2l2.3-2l7.2-6.1l6.4,6.9l7.4,8l7.3,8L285.5,92l6,6.7l-5.9,6.5l-5.4,6c-1.8,2-3.6,4-5.5,6L269,123
		c-0.9,1-1.9,1.9-2.9,2.8l-3,2.8l-3,2.8l-1.5,1.4l-1.5,1.3l-6.2,5.3c-2,1.8-4.2,3.4-6.3,5.1l-3.2,2.5c-1.1,0.8-2.1,1.7-3.3,2.4
		l-6.6,4.7c-1.1,0.8-2.2,1.6-3.3,2.3l-3.4,2.2c-4.5,3.1-9.2,5.7-13.8,8.5c-2.3,1.3-4.7,2.6-7.1,3.9c-1.2,0.6-2.3,1.3-3.5,1.9
		l-3.6,1.8c-2.4,1.2-4.8,2.5-7.2,3.6l-7.3,3.4c-4.9,2.1-9.9,4.3-14.9,6.1c-2.5,1-5,1.9-7.5,2.8c-2.5,0.9-5,1.8-7.6,2.6l-7.7,2.4
		l-7.7,2.2l-7.8,2c-2.6,0.6-5.2,1.2-7.8,1.8c-5.2,1.1-10.4,2.1-15.7,3l-7.9,1.2c-2.6,0.3-5.3,0.7-7.9,1c-5.3,0.6-10.6,1-15.9,1.2
		c-2.6,0.1-5.3,0.2-7.9,0.2s-5.3,0-7.9-0.2c5.2-0.9,10.4-1.8,15.5-3c5.1-1.1,10.2-2.4,15.2-3.7c2.5-0.6,5-1.4,7.5-2.1l7.5-2.2
		c2.5-0.8,5-1.5,7.4-2.3c2.5-0.8,4.9-1.6,7.4-2.5c2.4-0.9,4.9-1.7,7.3-2.6l7.3-2.7l7.2-2.9l7.1-3c2.4-1,4.7-2.1,7.1-3.2
		c2.4-1,4.7-2.1,7-3.3c4.7-2.2,9.2-4.6,13.8-6.9l6.7-3.7c2.3-1.2,4.4-2.6,6.6-3.9l3.3-1.9c1.1-0.6,2.2-1.3,3.3-2
		c2.2-1.4,4.3-2.7,6.5-4.1c4.2-2.9,8.5-5.6,12.6-8.7l3.1-2.2c1-0.7,2.1-1.5,3.1-2.3l6-4.7c2-1.5,3.9-3.2,5.9-4.8
		c1.9-1.6,4-3.2,5.8-4.9l5.7-5.1l1.4-1.3l1.4-1.3l2.7-2.6c1.8-1.8,3.7-3.5,5.5-5.3l5.3-5.5c1.8-1.8,3.5-3.7,5.1-5.6l5.1-5.7
		l0.2,13.2L256.2,89l-7.2-8.1l-7.2-8.2l13.6,0.9l-2.8,2.2l-2.7,2.1c-1.8,1.4-3.6,2.8-5.4,4.1c-3.6,2.7-7.3,5.3-11,7.8
		s-7.4,5-11.2,7.5c-3.8,2.4-7.6,4.8-11.4,7.1c-1.9,1.2-3.9,2.3-5.8,3.4c-1.9,1.1-3.9,2.2-5.8,3.3c-3.9,2.2-7.9,4.3-11.9,6.3l-6,3
		l-6.1,2.9c-2,1-4.1,1.9-6.1,2.8l-3.1,1.4l-3.1,1.3c-4.1,1.8-8.3,3.4-12.4,5.1c-2.1,0.8-4.2,1.6-6.3,2.3l-3.2,1.2l-3.2,1.1
		c-2.1,0.7-4.2,1.4-6.4,2.1l-6.4,2c-2.1,0.6-4.3,1.2-6.5,1.8l-3.2,0.9c-1.1,0.3-2.2,0.5-3.3,0.8c-2.2,0.5-4.4,1-6.5,1.5l-6.6,1.3
		c-2.2,0.5-4.4,0.8-6.6,1.1s-4.4,0.7-6.6,1l-6.6,0.7c-2.2,0.2-4.5,0.3-6.7,0.5l-3.3,0.2c-1.1,0.1-2.2,0.1-3.3,0.1
		C63.6,152.5,61.4,152.5,59.2,152.5z"/>
</g>
<g>
	<path class="st0" d="M40.6,199.6l-2.9-1.4c-1-0.5-2-0.9-2.9-1.4l-2.9-1.6c-1-0.5-1.9-1-2.8-1.6l-2.8-1.7c-0.9-0.6-1.8-1.2-2.7-1.8
		c-0.9-0.6-1.8-1.2-2.7-1.9l-2.6-2c-0.9-0.7-1.7-1.4-2.5-2.1c-0.9-0.7-1.7-1.5-2.5-2.2c-0.8-0.8-1.6-1.5-2.4-2.3s-1.6-1.6-2.3-2.5
		c-0.7-0.8-1.5-1.7-2.2-2.6c-0.7-0.9-1.4-1.8-2.1-2.7s-1.3-1.9-2-2.9c-0.3-0.5-0.6-1-0.9-1.5s-0.6-1-0.9-1.7L0,164.6l0.4-1.6
		l1.1-4.7l1.3-4.7c1-3.1,2-6.1,3.1-9.1c0.5-1.5,1.1-3,1.7-4.5c0.6-1.5,1.2-3,1.8-4.4c1.2-2.9,2.6-5.8,3.9-8.7
		c1.4-2.9,2.7-5.7,4.2-8.5c1.4-2.8,2.9-5.6,4.4-8.4s3-5.5,4.6-8.3c1.6-2.7,3.2-5.4,4.8-8.2c1.6-2.7,3.2-5.4,4.9-8.1
		c1.6-2.7,3.4-5.3,5-8c1.7-2.6,3.4-5.3,5.2-7.9c1.7-2.6,3.5-5.2,5.3-7.8c3.6-5.2,7.2-10.3,10.9-15.4c1.8-2.6,3.7-5.1,5.6-7.6
		s3.8-5,5.8-7.6l1.2-1.5l1.7-0.9l6.9-3.7c1.2-0.6,2.3-1.2,3.5-1.8l3.5-1.6l3.6-1.6c1.2-0.5,2.4-1.1,3.6-1.6l7.2-2.9l1.8-0.7l1.8-0.6
		l3.7-1.3c2.5-0.8,4.9-1.7,7.4-2.4l7.5-2.1l7.5-1.8c2.5-0.6,5-1.1,7.6-1.6c2.5-0.5,5-1,7.6-1.4l7.6-1.1c2.5-0.3,5.1-0.6,7.6-0.9
		c1.3-0.1,2.5-0.3,3.8-0.4l3.8-0.3c2.6-0.2,5.1-0.4,7.7-0.5l7.7-0.3l7.6-0.1c2.5-0.1,5.1,0,7.6,0.1s5.1,0.1,7.6,0.3
		c2.5,0.1,5.1,0.2,7.6,0.4c2.5,0.2,5.1,0.4,7.6,0.6c5,0.5,10.1,1,15.1,1.7c2.5,0.3,5,0.7,7.5,1.1c2.5,0.4,5,0.8,7.5,1.2l3.7,0.7
		l3.7,0.7c2.5,0.5,4.9,1,7.4,1.6c2.5,0.5,4.9,1.1,7.4,1.7c2.5,0.6,4.9,1.2,7.3,1.8c4.9,1.3,9.7,2.6,14.5,4.2
		c2.4,0.8,4.8,1.5,7.2,2.3c2.4,0.8,4.7,1.6,7.2,2.6l3.5,1.4l-1,3.1L314.1,36l-3.4,10.6l-1.7,5.3l-1.8,5.3c-1.2,3.5-2.3,7-3.6,10.5
		c0.4-3.7,0.9-7.3,1.4-11l0.7-5.5l0.8-5.5l1.6-11l1.7-10.9l2.6,4.5c-4.7-1-9.5-2-14.3-2.9s-9.7-1.7-14.5-2.4
		c-4.9-0.7-9.7-1.4-14.6-1.9l-3.6-0.4l-3.6-0.4l-3.6-0.4l-3.6-0.3c-2.4-0.2-4.9-0.4-7.3-0.6c-2.4-0.2-4.9-0.3-7.3-0.5
		c-4.9-0.3-9.7-0.5-14.6-0.6c-2.4,0-4.9-0.1-7.3-0.1c-2.4,0-4.8,0-7.3,0c-2.4,0-4.8,0.1-7.3,0.1c-2.4,0.1-4.8,0.1-7.2,0.3l-7.2,0.4
		l-7.2,0.6c-2.4,0.2-4.8,0.5-7.2,0.7l-3.6,0.4c-1.2,0.1-2.4,0.3-3.6,0.5c-2.4,0.3-4.8,0.6-7.1,1l-7.1,1.2l-1.8,0.3l-1.8,0.4
		l-3.5,0.7c-2.3,0.5-4.7,0.9-7,1.5l-6.9,1.7l-6.8,2c-2.3,0.6-4.5,1.4-6.8,2.1l-3.4,1.1l-1.7,0.6l-1.7,0.6l-6.6,2.5
		c-1.1,0.4-2.2,0.9-3.3,1.4l-3.2,1.4l-3.2,1.6c-1.1,0.5-2.1,1-3.2,1.6l-6.3,3.2l2.9-2.4c-1.9,2.3-3.8,4.7-5.7,7.1l-5.7,7.1
		c-3.8,4.8-7.5,9.7-11.2,14.6l-5.5,7.4c-1.8,2.5-3.7,4.9-5.5,7.4c-3.6,5-7.2,10-10.7,15c-1.7,2.5-3.5,5-5.2,7.6
		c-1.7,2.5-3.4,5.1-5.1,7.6c-1.7,2.6-3.3,5.1-4.9,7.7c-1.6,2.6-3.2,5.2-4.8,7.8c-1.5,2.6-3.1,5.2-4.6,7.9c-0.8,1.3-1.5,2.7-2.2,4
		s-1.5,2.7-2.1,4c-1.4,2.7-2.7,5.4-3.9,8.1l-1.8,4.1l-1.6,4.2l-0.2-2.8c0.1,0.2,0.3,0.8,0.4,1.2c0.2,0.4,0.4,0.9,0.6,1.3
		c0.4,0.9,0.8,1.8,1.3,2.7s1,1.8,1.5,2.6c0.5,0.9,1.1,1.7,1.7,2.6c0.5,0.9,1.2,1.7,1.8,2.5c0.6,0.9,1.2,1.7,1.9,2.5
		c0.6,0.8,1.3,1.7,2,2.4c0.7,0.8,1.3,1.6,2.1,2.4l2.2,2.3c0.7,0.8,1.5,1.5,2.2,2.3c0.8,0.7,1.5,1.5,2.3,2.2l2.4,2.2
		c0.8,0.7,1.6,1.4,2.4,2.1l2.5,2.1c0.8,0.7,1.7,1.3,2.6,2L40.6,199.6z"/>
</g>
<g>
	<path class="st0" d="M498.3,169.6c1.6,0,3-0.1,4.4-0.2c1.3-0.1,2.6-0.4,3.8-0.7c1.2-0.3,2.3-0.7,3.3-1.1c1-0.4,2.1-0.9,3.1-1.5v-13
		h-9.1c-0.5,0-0.9-0.1-1.3-0.5s-0.5-0.7-0.5-1.1v-4.5h18v22.5c-1.5,1.1-3,2-4.6,2.8c-1.6,0.8-3.3,1.5-5.1,2
		c-1.8,0.5-3.8,0.9-5.8,1.2c-2.1,0.3-4.3,0.4-6.8,0.4c-4.3,0-8.2-0.7-11.7-2.2c-3.6-1.5-6.6-3.5-9.2-6.2s-4.6-5.8-6-9.5
		c-1.4-3.7-2.2-7.7-2.2-12.2c0-4.5,0.7-8.6,2.1-12.3c1.4-3.7,3.4-6.9,6-9.5c2.6-2.6,5.8-4.7,9.5-6.1c3.7-1.4,7.9-2.2,12.4-2.2
		c2.3,0,4.5,0.2,6.5,0.5c2,0.3,3.8,0.8,5.6,1.5c1.7,0.6,3.3,1.4,4.7,2.3c1.4,0.9,2.8,1.9,4.1,3.1l-2.3,3.6c-0.5,0.7-1.1,1.1-1.8,1.1
		c-0.4,0-0.9-0.1-1.4-0.5c-0.7-0.4-1.4-0.8-2.3-1.4c-0.8-0.5-1.9-1.1-3.1-1.6c-1.2-0.5-2.7-0.9-4.3-1.3c-1.7-0.4-3.6-0.5-5.9-0.5
		c-3.3,0-6.3,0.5-9,1.6c-2.7,1.1-5,2.6-6.8,4.6c-1.9,2-3.3,4.4-4.3,7.3c-1,2.9-1.5,6.1-1.5,9.6c0,3.7,0.5,7,1.6,9.9
		c1.1,2.9,2.5,5.4,4.4,7.4c1.9,2,4.2,3.6,6.8,4.6C492.3,169.1,495.2,169.6,498.3,169.6z"/>
	<path class="st0" d="M580.7,175.4h-6.1c-0.7,0-1.3-0.2-1.7-0.5c-0.4-0.4-0.8-0.8-1-1.4l-5.5-14.2h-26.4l-5.5,14.2
		c-0.2,0.5-0.5,0.9-1,1.3c-0.5,0.4-1,0.6-1.7,0.6h-6.1l23.5-58.8h8.1L580.7,175.4z M542.2,153.6h21.9l-9.2-23.9
		c-0.6-1.5-1.2-3.3-1.8-5.5c-0.3,1.1-0.6,2.2-0.9,3.1c-0.3,0.9-0.6,1.8-0.8,2.5L542.2,153.6z"/>
	<path class="st0" d="M596,168.7h25.4v6.7h-33.4v-58.8h8V168.7z"/>
	<path class="st0" d="M678.6,175.4h-6.1c-0.7,0-1.3-0.2-1.7-0.5c-0.4-0.4-0.8-0.8-1-1.4l-5.5-14.2h-26.4l-5.5,14.2
		c-0.2,0.5-0.5,0.9-1,1.3c-0.5,0.4-1,0.6-1.7,0.6h-6.1l23.5-58.8h8.1L678.6,175.4z M640.1,153.6H662l-9.2-23.9
		c-0.6-1.5-1.2-3.3-1.8-5.5c-0.3,1.1-0.6,2.2-0.9,3.1c-0.3,0.9-0.6,1.8-0.8,2.5L640.1,153.6z"/>
	<path class="st0" d="M694.7,153.4v22h-7.9v-58.8h17.3c3.7,0,6.9,0.4,9.7,1.3s5,2.1,6.8,3.7c1.8,1.6,3.1,3.5,4,5.7
		c0.9,2.2,1.3,4.7,1.3,7.5c0,2.7-0.5,5.2-1.4,7.5c-1,2.3-2.4,4.2-4.2,5.9s-4.1,2.9-6.9,3.8c-2.7,0.9-5.9,1.4-9.4,1.4H694.7z
		 M694.7,147.1h9.4c2.3,0,4.3-0.3,6-0.9c1.7-0.6,3.2-1.4,4.4-2.5c1.2-1.1,2.1-2.4,2.7-3.9c0.6-1.5,0.9-3.2,0.9-5
		c0-3.7-1.2-6.7-3.5-8.8c-2.3-2.1-5.8-3.2-10.5-3.2h-9.4V147.1z"/>
	<path class="st0" d="M778.8,175.4h-6.1c-0.7,0-1.3-0.2-1.7-0.5c-0.4-0.4-0.8-0.8-1-1.4l-5.5-14.2h-26.4l-5.5,14.2
		c-0.2,0.5-0.5,0.9-1,1.3c-0.5,0.4-1,0.6-1.7,0.6h-6.1l23.5-58.8h8.1L778.8,175.4z M740.3,153.6h21.9l-9.2-23.9
		c-0.6-1.5-1.2-3.3-1.8-5.5c-0.3,1.1-0.6,2.2-0.9,3.1c-0.3,0.9-0.6,1.8-0.8,2.5L740.3,153.6z"/>
	<path class="st0" d="M810.7,169.6c1.6,0,3-0.1,4.4-0.2c1.3-0.1,2.6-0.4,3.8-0.7c1.2-0.3,2.3-0.7,3.3-1.1c1-0.4,2.1-0.9,3.1-1.5v-13
		h-9.1c-0.5,0-0.9-0.1-1.3-0.5s-0.5-0.7-0.5-1.1v-4.5h18v22.5c-1.5,1.1-3,2-4.6,2.8c-1.6,0.8-3.3,1.5-5.1,2
		c-1.8,0.5-3.8,0.9-5.8,1.2c-2.1,0.3-4.3,0.4-6.8,0.4c-4.3,0-8.2-0.7-11.7-2.2c-3.6-1.5-6.6-3.5-9.2-6.2s-4.6-5.8-6-9.5
		c-1.4-3.7-2.2-7.7-2.2-12.2c0-4.5,0.7-8.6,2.1-12.3c1.4-3.7,3.4-6.9,6-9.5c2.6-2.6,5.8-4.7,9.5-6.1c3.7-1.4,7.9-2.2,12.4-2.2
		c2.3,0,4.5,0.2,6.5,0.5c2,0.3,3.8,0.8,5.6,1.5c1.7,0.6,3.3,1.4,4.7,2.3c1.4,0.9,2.8,1.9,4.1,3.1l-2.3,3.6c-0.5,0.7-1.1,1.1-1.8,1.1
		c-0.4,0-0.9-0.1-1.4-0.5c-0.7-0.4-1.4-0.8-2.3-1.4c-0.8-0.5-1.9-1.1-3.1-1.6c-1.2-0.5-2.7-0.9-4.3-1.3c-1.7-0.4-3.6-0.5-5.9-0.5
		c-3.3,0-6.3,0.5-9,1.6c-2.7,1.1-5,2.6-6.8,4.6c-1.9,2-3.3,4.4-4.3,7.3c-1,2.9-1.5,6.1-1.5,9.6c0,3.7,0.5,7,1.6,9.9
		c1.1,2.9,2.5,5.4,4.4,7.4c1.9,2,4.2,3.6,6.8,4.6C804.6,169.1,807.5,169.6,810.7,169.6z"/>
	<path class="st0" d="M899.2,146.1c0,4.4-0.7,8.4-2.1,12.1c-1.4,3.7-3.4,6.8-5.9,9.5c-2.5,2.7-5.6,4.7-9.2,6.2
		c-3.6,1.5-7.5,2.2-11.8,2.2c-4.3,0-8.3-0.7-11.8-2.2c-3.6-1.5-6.6-3.5-9.1-6.2c-2.5-2.7-4.5-5.8-5.9-9.5c-1.4-3.7-2.1-7.7-2.1-12.1
		c0-4.4,0.7-8.4,2.1-12.1c1.4-3.7,3.4-6.8,5.9-9.5s5.6-4.7,9.1-6.2c3.6-1.5,7.5-2.2,11.8-2.2c4.3,0,8.3,0.7,11.8,2.2
		c3.6,1.5,6.6,3.5,9.2,6.2s4.5,5.8,5.9,9.5C898.5,137.6,899.2,141.7,899.2,146.1z M891.1,146.1c0-3.6-0.5-6.8-1.5-9.7
		c-1-2.9-2.4-5.3-4.2-7.3c-1.8-2-4-3.5-6.6-4.6c-2.6-1.1-5.4-1.6-8.6-1.6c-3.1,0-6,0.5-8.6,1.6c-2.6,1.1-4.8,2.6-6.6,4.6
		c-1.8,2-3.2,4.4-4.2,7.3c-1,2.9-1.5,6.1-1.5,9.7s0.5,6.8,1.5,9.7c1,2.9,2.4,5.3,4.2,7.3c1.8,2,4,3.5,6.6,4.6
		c2.6,1.1,5.4,1.6,8.6,1.6c3.2,0,6-0.5,8.6-1.6c2.6-1.1,4.8-2.6,6.6-4.6c1.8-2,3.2-4.4,4.2-7.3C890.6,152.9,891.1,149.7,891.1,146.1
		z"/>
	<path class="st0" d="M940.2,125.9c-0.2,0.4-0.5,0.7-0.8,0.9c-0.3,0.2-0.6,0.3-1.1,0.3c-0.5,0-1-0.2-1.6-0.7c-0.6-0.5-1.4-1-2.3-1.5
		c-0.9-0.6-2.1-1.1-3.4-1.5c-1.3-0.5-2.9-0.7-4.8-0.7c-1.8,0-3.3,0.2-4.7,0.7c-1.4,0.5-2.5,1.1-3.4,1.9s-1.6,1.8-2.1,2.9
		c-0.5,1.1-0.7,2.3-0.7,3.6c0,1.6,0.4,3,1.2,4.1c0.8,1.1,1.9,2,3.2,2.8c1.3,0.8,2.8,1.4,4.5,2c1.7,0.6,3.4,1.1,5.2,1.7
		c1.8,0.6,3.5,1.3,5.2,2c1.7,0.8,3.2,1.7,4.5,2.8c1.3,1.1,2.4,2.6,3.2,4.2c0.8,1.7,1.2,3.7,1.2,6.1c0,2.6-0.4,5-1.3,7.2
		c-0.9,2.3-2.2,4.2-3.8,5.9c-1.7,1.7-3.7,3-6.2,3.9c-2.4,1-5.2,1.4-8.3,1.4c-3.8,0-7.3-0.7-10.4-2.1s-5.8-3.2-8-5.6l2.3-3.8
		c0.2-0.3,0.5-0.6,0.8-0.8c0.3-0.2,0.7-0.3,1-0.3c0.6,0,1.2,0.3,2,0.9c0.7,0.6,1.7,1.3,2.8,2c1.1,0.7,2.4,1.4,4,2
		c1.6,0.6,3.5,0.9,5.8,0.9c1.9,0,3.6-0.3,5-0.8c1.5-0.5,2.7-1.3,3.8-2.2c1-0.9,1.8-2.1,2.4-3.4s0.8-2.8,0.8-4.4
		c0-1.8-0.4-3.2-1.2-4.4c-0.8-1.1-1.9-2.1-3.2-2.8c-1.3-0.8-2.8-1.4-4.5-1.9c-1.7-0.5-3.4-1.1-5.2-1.6c-1.8-0.6-3.5-1.2-5.2-1.9
		c-1.7-0.7-3.2-1.7-4.5-2.9c-1.3-1.2-2.4-2.6-3.2-4.4c-0.8-1.8-1.2-3.9-1.2-6.5c0-2.1,0.4-4.1,1.2-6c0.8-1.9,2-3.7,3.5-5.2
		c1.5-1.5,3.4-2.7,5.7-3.6c2.3-0.9,4.8-1.4,7.8-1.4c3.3,0,6.3,0.5,9,1.6c2.7,1,5.1,2.5,7.1,4.5L940.2,125.9z"/>
</g>
<g>
	<path class="st0" d="M530.1,245.8c0.4,0,0.8,0.2,1.2,0.5l3.1,3.4c-2.4,2.8-5.3,5-8.8,6.5c-3.4,1.6-7.6,2.3-12.4,2.3
		c-4.2,0-8.1-0.7-11.5-2.2s-6.4-3.5-8.8-6.2c-2.4-2.6-4.3-5.8-5.7-9.5c-1.3-3.7-2-7.7-2-12.2c0-4.4,0.7-8.5,2.2-12.2
		c1.4-3.7,3.5-6.9,6-9.5c2.6-2.7,5.7-4.7,9.3-6.2c3.6-1.5,7.6-2.2,12-2.2c4.3,0,8,0.7,11.2,2c3.1,1.3,5.9,3.2,8.3,5.5l-2.6,3.6
		c-0.2,0.3-0.4,0.5-0.7,0.7s-0.6,0.3-1.1,0.3c-0.4,0-0.7-0.1-1.1-0.4c-0.4-0.3-0.9-0.6-1.4-1c-0.5-0.4-1.2-0.8-1.9-1.2
		s-1.6-0.8-2.6-1.2c-1-0.4-2.2-0.7-3.5-1s-2.9-0.4-4.6-0.4c-3.1,0-6,0.5-8.6,1.6c-2.6,1.1-4.9,2.6-6.7,4.6c-1.9,2-3.4,4.4-4.4,7.3
		c-1.1,2.9-1.6,6.1-1.6,9.6c0,3.7,0.5,6.9,1.6,9.8c1.1,2.9,2.5,5.3,4.3,7.3c1.8,2,4,3.5,6.5,4.5c2.5,1,5.2,1.6,8,1.6
		c1.7,0,3.3-0.1,4.7-0.3c1.4-0.2,2.7-0.5,3.9-1c1.2-0.4,2.3-1,3.3-1.7c1-0.7,2.1-1.5,3.1-2.4C529.2,246,529.6,245.8,530.1,245.8z"/>
	<path class="st0" d="M599.4,228.6c0,4.4-0.7,8.4-2.1,12.1c-1.4,3.7-3.4,6.8-5.9,9.5c-2.5,2.7-5.6,4.7-9.2,6.2
		c-3.6,1.5-7.5,2.2-11.8,2.2c-4.3,0-8.3-0.7-11.8-2.2c-3.6-1.5-6.6-3.5-9.1-6.2c-2.5-2.7-4.5-5.8-5.9-9.5c-1.4-3.7-2.1-7.7-2.1-12.1
		s0.7-8.4,2.1-12.1c1.4-3.7,3.4-6.8,5.9-9.5s5.6-4.7,9.1-6.2c3.6-1.5,7.5-2.2,11.8-2.2c4.3,0,8.3,0.7,11.8,2.2
		c3.6,1.5,6.6,3.5,9.2,6.2s4.5,5.8,5.9,9.5C598.7,220.1,599.4,224.2,599.4,228.6z M591.2,228.6c0-3.6-0.5-6.8-1.5-9.7
		c-1-2.9-2.4-5.3-4.2-7.3c-1.8-2-4-3.5-6.6-4.6c-2.6-1.1-5.4-1.6-8.6-1.6c-3.1,0-6,0.5-8.6,1.6c-2.6,1.1-4.8,2.6-6.6,4.6
		c-1.8,2-3.2,4.4-4.2,7.3c-1,2.9-1.5,6.1-1.5,9.7c0,3.6,0.5,6.8,1.5,9.7c1,2.9,2.4,5.3,4.2,7.3c1.8,2,4,3.5,6.6,4.6
		c2.6,1.1,5.4,1.6,8.6,1.6c3.2,0,6-0.5,8.6-1.6c2.6-1.1,4.8-2.6,6.6-4.6c1.8-2,3.2-4.4,4.2-7.3C590.7,235.4,591.2,232.2,591.2,228.6
		z"/>
	<path class="st0" d="M615.9,199.4c0.3,0.2,0.7,0.5,1.2,1.1l34,44.3c-0.1-0.7-0.1-1.4-0.2-2.1c0-0.7,0-1.3,0-1.9v-41.6h7v58.8h-4
		c-0.6,0-1.2-0.1-1.6-0.3c-0.4-0.2-0.8-0.6-1.3-1.1l-34-44.2c0.1,0.7,0.1,1.4,0.1,2c0,0.7,0,1.3,0,1.8v41.9h-7v-58.8h4.1
		C615.1,199.2,615.6,199.3,615.9,199.4z"/>
	<path class="st0" d="M702.3,208.3c-0.2,0.4-0.5,0.7-0.8,0.9c-0.3,0.2-0.6,0.3-1.1,0.3c-0.5,0-1-0.2-1.6-0.7c-0.6-0.5-1.4-1-2.3-1.5
		c-0.9-0.6-2.1-1.1-3.4-1.5c-1.3-0.5-2.9-0.7-4.8-0.7c-1.8,0-3.3,0.2-4.7,0.7c-1.4,0.5-2.5,1.1-3.4,1.9c-0.9,0.8-1.6,1.8-2.1,2.9
		c-0.5,1.1-0.7,2.3-0.7,3.6c0,1.6,0.4,3,1.2,4.1c0.8,1.1,1.9,2,3.2,2.8c1.3,0.8,2.8,1.4,4.5,2c1.7,0.6,3.4,1.1,5.2,1.7
		c1.8,0.6,3.5,1.3,5.2,2c1.7,0.8,3.2,1.7,4.5,2.8c1.3,1.1,2.4,2.6,3.2,4.2c0.8,1.7,1.2,3.7,1.2,6.1c0,2.6-0.4,5-1.3,7.2
		c-0.9,2.3-2.2,4.2-3.8,5.9c-1.7,1.7-3.7,3-6.2,3.9c-2.4,1-5.2,1.4-8.3,1.4c-3.8,0-7.3-0.7-10.4-2.1s-5.8-3.2-8-5.6l2.3-3.8
		c0.2-0.3,0.5-0.6,0.8-0.8c0.3-0.2,0.7-0.3,1-0.3c0.6,0,1.2,0.3,2,0.9c0.7,0.6,1.7,1.3,2.8,2c1.1,0.7,2.4,1.4,4,2
		c1.6,0.6,3.5,0.9,5.8,0.9c1.9,0,3.6-0.3,5-0.8c1.5-0.5,2.7-1.3,3.8-2.2c1-0.9,1.8-2.1,2.4-3.4c0.5-1.3,0.8-2.8,0.8-4.4
		c0-1.8-0.4-3.2-1.2-4.4c-0.8-1.1-1.9-2.1-3.2-2.8c-1.3-0.8-2.8-1.4-4.5-1.9c-1.7-0.5-3.4-1.1-5.2-1.6c-1.8-0.6-3.5-1.2-5.2-1.9
		c-1.7-0.7-3.2-1.7-4.5-2.9c-1.3-1.2-2.4-2.6-3.2-4.4c-0.8-1.8-1.2-3.9-1.2-6.5c0-2.1,0.4-4.1,1.2-6c0.8-1.9,2-3.7,3.5-5.2
		c1.5-1.5,3.4-2.7,5.7-3.6s4.8-1.4,7.8-1.4c3.3,0,6.3,0.5,9,1.6c2.7,1,5.1,2.5,7.1,4.5L702.3,208.3z"/>
	<path class="st0" d="M751.9,199.2v6.5h-28.2v19.5h22.8v6.2h-22.8v20h28.2v6.5h-36.2v-58.8H751.9z"/>
	<path class="st0" d="M772.1,233.4v24.5h-7.9v-58.8h16.6c3.7,0,6.9,0.4,9.6,1.1s4.9,1.8,6.7,3.3c1.8,1.4,3.1,3.1,3.9,5.1
		c0.8,2,1.3,4.3,1.3,6.7c0,2.1-0.3,4-1,5.8c-0.7,1.8-1.6,3.4-2.8,4.9c-1.2,1.4-2.8,2.7-4.6,3.7c-1.8,1-3.8,1.8-6.1,2.3
		c1,0.6,1.9,1.4,2.6,2.5l17.1,23.3h-7.1c-1.4,0-2.5-0.6-3.2-1.7l-15.3-21c-0.5-0.7-1-1.1-1.5-1.4s-1.4-0.4-2.5-0.4H772.1z
		 M772.1,227.6h8.3c2.3,0,4.4-0.3,6.1-0.8c1.8-0.6,3.2-1.4,4.4-2.4c1.2-1,2.1-2.2,2.7-3.7s0.9-3,0.9-4.7c0-3.5-1.2-6.1-3.5-7.9
		s-5.7-2.7-10.3-2.7h-8.7V227.6z"/>
	<path class="st0" d="M809.4,199.2h6.4c0.7,0,1.3,0.2,1.7,0.5c0.4,0.4,0.8,0.8,1,1.4l16.6,41.5c0.4,0.9,0.7,1.9,1,3
		c0.3,1.1,0.6,2.2,0.9,3.4c0.2-1.2,0.5-2.3,0.8-3.4c0.3-1.1,0.6-2.1,1-3l16.5-41.5c0.2-0.5,0.5-0.9,1-1.3c0.5-0.4,1-0.6,1.7-0.6h6.4
		l-23.9,58.8h-7.2L809.4,199.2z"/>
	<path class="st0" d="M914.7,257.9h-6.1c-0.7,0-1.3-0.2-1.7-0.5c-0.4-0.4-0.8-0.8-1-1.4l-5.5-14.2H874l-5.5,14.2
		c-0.2,0.5-0.5,0.9-1,1.3c-0.5,0.4-1,0.6-1.7,0.6h-6.1l23.5-58.8h8.1L914.7,257.9z M876.2,236.1h21.9l-9.2-23.9
		c-0.6-1.5-1.2-3.3-1.8-5.5c-0.3,1.1-0.6,2.2-0.9,3.1c-0.3,0.9-0.6,1.8-0.8,2.5L876.2,236.1z"/>
	<path class="st0" d="M927.8,199.4c0.3,0.2,0.7,0.5,1.2,1.1l34,44.3c-0.1-0.7-0.1-1.4-0.2-2.1c0-0.7,0-1.3,0-1.9v-41.6h7v58.8h-4
		c-0.6,0-1.2-0.1-1.6-0.3c-0.4-0.2-0.8-0.6-1.3-1.1l-34-44.2c0.1,0.7,0.1,1.4,0.1,2c0,0.7,0,1.3,0,1.8v41.9h-7v-58.8h4.1
		C926.9,199.2,927.4,199.3,927.8,199.4z"/>
	<path class="st0" d="M1025.5,245.8c0.4,0,0.8,0.2,1.2,0.5l3.1,3.4c-2.4,2.8-5.3,5-8.8,6.5c-3.4,1.6-7.6,2.3-12.4,2.3
		c-4.2,0-8.1-0.7-11.5-2.2s-6.4-3.5-8.8-6.2c-2.4-2.6-4.3-5.8-5.7-9.5c-1.3-3.7-2-7.7-2-12.2c0-4.4,0.7-8.5,2.2-12.2
		c1.4-3.7,3.5-6.9,6-9.5c2.6-2.7,5.7-4.7,9.3-6.2c3.6-1.5,7.6-2.2,12-2.2c4.3,0,8,0.7,11.2,2c3.1,1.3,5.9,3.2,8.3,5.5l-2.6,3.6
		c-0.2,0.3-0.4,0.5-0.7,0.7s-0.6,0.3-1.1,0.3c-0.4,0-0.7-0.1-1.1-0.4c-0.4-0.3-0.9-0.6-1.4-1c-0.5-0.4-1.2-0.8-1.9-1.2
		s-1.6-0.8-2.6-1.2c-1-0.4-2.2-0.7-3.5-1s-2.9-0.4-4.6-0.4c-3.1,0-6,0.5-8.6,1.6c-2.6,1.1-4.9,2.6-6.7,4.6c-1.9,2-3.4,4.4-4.4,7.3
		c-1.1,2.9-1.6,6.1-1.6,9.6c0,3.7,0.5,6.9,1.6,9.8c1.1,2.9,2.5,5.3,4.3,7.3c1.8,2,4,3.5,6.5,4.5c2.5,1,5.2,1.6,8,1.6
		c1.7,0,3.3-0.1,4.7-0.3c1.4-0.2,2.7-0.5,3.9-1c1.2-0.4,2.3-1,3.3-1.7c1-0.7,2.1-1.5,3.1-2.4C1024.6,246,1025.1,245.8,1025.5,245.8z
		"/>
	<path class="st0" d="M1062.9,234.5v23.4h-7.9v-23.4l-21.5-35.4h7c0.7,0,1.3,0.2,1.7,0.5c0.4,0.4,0.8,0.8,1.1,1.3l13.4,22.8
		c0.5,1,1,1.9,1.4,2.7c0.4,0.8,0.7,1.7,1,2.5c0.3-0.8,0.6-1.7,1-2.5c0.4-0.8,0.8-1.7,1.4-2.7l13.4-22.8c0.2-0.4,0.6-0.9,1-1.2
		c0.4-0.4,1-0.6,1.7-0.6h7.1L1062.9,234.5z"/>
</g>
</svg>
